<?xml version="1.0" encoding="UTF-8"?><svg id="Logo" xmlns="http://www.w3.org/2000/svg" viewBox="0 0 1000 1000"><defs><style>.cls-1{fill:#fff;}</style></defs><g id="Light"><circle id="Circle" cx="500" cy="500" r="500"/><path class="cls-1" d="M253.0762,805.9258h-82.2021L88.3545,240.3501h86.6455l35.8643,295.4829,42.2119,270.0928ZM300.3662,499.9692l-36.1816,275.1704-37.1338-239.624,38.7207-252.9536,34.5947,217.4072ZM275.6104,240.3501h76.1719l44.751,295.8003,42.2119,269.7754h-74.9023l-88.2324-565.5757ZM413.3545,536.1504l36.1816-295.8003h86.6455l-81.8848,565.5757-40.9424-269.7754Z"/><path class="cls-1" d="M655.835,240.0327l13.6475,33.0078v532.8853h-86.3281V240.0327h72.6807ZM685.3516,311.4438l100.293,218.9937v202.1729l-100.293-227.8809v-193.2856ZM801.5137,772.6006V240.0327h83.4727v565.8931h-70.1426l-13.3301-33.3252Z"/></g></svg>